# xmcd CD database file
#
# Track frame offsets:
#	150
#	29097
#	40917
#	51924
#	71139
#	91014
#	105242
#	121774
#	146910
#	157147
#	168801
#	178522
#	189844
#	199283
#
# Disc length: 2788 seconds
#
# Revision: 0
# Processed by: cddbd v1.5.2PL0 Copyright (c) Steve Scherf et al.
# Submitted via: CDex 1.51
#
DISCID=bf0ae20e
DTITLE=louis prima  - the wildest show at tahoe vol.3
DYEAR=1900
DGENRE=Jazz
TTITLE0=on the sunny side of the street - exactly like you
TTITLE1=a foggy day
TTITLE2=how high the moon
TTITLE3=angelina - zooma zooma
TTITLE4=don't worry 'bout me - i'm in the mood for love
TTITLE5=come back to sorrento
TTITLE6=i'm gotta right to sing the blues
TTITLE7=robin hood - oh babe
TTITLE8=whistle stop
TTITLE9=be mine (little bany)
TTITLE10=5 months, 2 weeks, 2 days
TTITLE11=banana split for me baby
TTITLE12=baby won'y you please come home
TTITLE13=beep! beep!
EXTD=
EXTT0=
EXTT1=
EXTT2=
EXTT3=
EXTT4=
EXTT5=
EXTT6=
EXTT7=
EXTT8=
EXTT9=
EXTT10=
EXTT11=
EXTT12=
EXTT13=
PLAYORDER=
